<svg xmlns="http://www.w3.org/2000/svg" viewBox="0 0 122.58 37.33"><defs><style>.cls-1{fill:#231f20;}.cls-2{fill:#f58220;}</style></defs><g id="Layer_2" data-name="Layer 2"><g id="basic_layout" data-name="basic layout"><path class="cls-1" d="M40.51,12.66c0,2-1,4.07-4.38,4.07-2.75,0-4.32-1.54-4.32-4.35v-.85h2v.63c0,1.67.45,2.9,2.4,2.9s2.38-1.05,2.38-2.7V1.51h2Z"/><path class="cls-1" d="M56.55,1.51h2V7.93h7.83V1.51h2V16.38h-2V9.6H58.51v6.78h-2Z"/><path class="cls-1" d="M69.54,1.51h2.08l7.83,12h0v-12h1.88V16.38H79.2L71.43,4.46h0V16.38H69.54Z"/><path class="cls-1" d="M91.4,5.88c-.23-2.13-1.65-3-3.67-3-1.67,0-3.34.6-3.34,2.55S86.77,7.49,89.17,8s4.74,1.39,4.74,4.31c0,3.12-3.11,4.39-5.8,4.39-3.35,0-6.14-1.63-6.14-5.2h1.85c0,2.44,2.09,3.53,4.35,3.53,1.77,0,3.76-.57,3.76-2.72,0-2-2.39-2.34-4.74-2.86s-4.76-1.22-4.76-3.95c0-3,2.67-4.38,5.38-4.38,3,0,5.35,1.44,5.47,4.73Z"/><path class="cls-1" d="M101.35,1.15c4.72,0,7.09,3.77,7.09,7.83s-2.37,7.75-7.09,7.75S94.23,13,94.23,9,96.6,1.15,101.35,1.15Zm0,13.91c3.61,0,5.13-3.07,5.13-6.08S105,2.83,101.35,2.83,96.18,6,96.18,9,97.71,15.06,101.35,15.06Z"/><path class="cls-1" d="M48.56,1.15c4.72,0,7.09,3.77,7.09,7.83s-2.37,7.75-7.09,7.75S41.44,13,41.44,9,43.81,1.15,48.56,1.15Zm0,13.91c3.61,0,5.13-3.07,5.13-6.08s-1.52-6.15-5.13-6.15S43.39,6,43.39,9,44.92,15.06,48.56,15.06Z"/><path class="cls-1" d="M109.59,1.51h2.11l7.83,12h0v-12h1.84V16.38h-2.14L111.51,4.46h0V16.38h-1.88Z"/><path class="cls-2" d="M19.48,8.32V3.43h6.65V1.55A1.52,1.52,0,0,0,24.62,0H7A2.57,2.57,0,0,0,4.91,2.07V20A2.57,2.57,0,0,0,7,22H24.62a1.52,1.52,0,0,0,1.51-1.54V18.55H19.48v-4.9h6.65V8.32Z"/><path class="cls-1" d="M21,6.85a5.5,5.5,0,0,0-5.62-5.4,5.53,5.53,0,0,0-5.63,5.4,5.53,5.53,0,0,0,5.63,5.39A5.5,5.5,0,0,0,21,6.85Z"/><path class="cls-1" d="M10.34,26.82a5.09,5.09,0,0,1-5.13,5.35c-3.33,0-4.84-2.84-4.84-5.55v-.05H0s0,.64,0,1c0,5.76,5.39,9.8,10.43,9.8s10-3.84,10-9.6V24.09H10.33S10.34,26.11,10.34,26.82Z"/><rect class="cls-1" x="10.33" y="13.65" width="10.14" height="9.31"/><path class="cls-1" d="M34.68,20.74H45v1.67h-8.3v4.68H44.4v1.68H36.67v5.16H45v1.68H34.68Z"/><path class="cls-1" d="M46.28,20.74h2V33.93h7.87v1.68H46.28Z"/><path class="cls-1" d="M57,20.74H67.28v1.67H59v4.68h7.73v1.68H59v5.16h8.35v1.68H57Z"/><path class="cls-1" d="M78.78,25.17a3.91,3.91,0,0,0-4.15-3.11c-3.52,0-5,2.93-5,6,0,3.41,1.51,6.25,5.05,6.25,2.62,0,4.09-1.84,4.28-4.31h2c-.37,3.72-2.69,6-6.42,6-4.62,0-6.88-3.44-6.88-7.79s2.47-7.8,7-7.8c3.09,0,5.66,1.68,6.12,4.79Z"/><path class="cls-1" d="M85.34,22.41h-5V20.74H92.27v1.67h-5v13.2h-2Z"/><path class="cls-1" d="M93.15,20.74h7c2.8,0,4.5,1.52,4.5,3.91a3.56,3.56,0,0,1-2.56,3.72v0c1.7.34,2.06,1.61,2.2,3.08s0,3.09.88,4.12H103c-.56-.61-.25-2.22-.54-3.68s-.57-2.7-2.49-2.7H95.13v6.38h-2Zm6.1,6.81c1.86,0,3.45-.48,3.45-2.59A2.37,2.37,0,0,0,100,22.41H95.13v5.14Z"/><path class="cls-1" d="M106.11,20.74h2V35.61h-2Z"/><path class="cls-1" d="M120.48,25.17a3.94,3.94,0,0,0-4.18-3.11c-3.52,0-5,2.93-5,6,0,3.41,1.51,6.25,5,6.25,2.62,0,4.12-1.84,4.31-4.31h2c-.37,3.72-2.66,6-6.43,6-4.61,0-6.84-3.44-6.84-7.79s2.44-7.8,7-7.8c3.12,0,5.68,1.68,6.12,4.79Z"/></g></g></svg>